# xmcd CD database file
#
# Track frame offsets:
#	150
#	29365
#	50860
#	75475
#	100352
#	125822
#	162022
#	189290
#	215570
#	245472
#
# Disc length: 3534 seconds
#
# Revision: 0
# Processed by: cddbd v1.5.1PL0 Copyright (c) Steve Scherf et al.
# Submitted via: CDex 1.51
#
DISCID=870dcc0a
DTITLE=Otmaro Ruiz - Latino
DYEAR=2005
DGENRE=Jazz
TTITLE0=OBSESION
TTITLE1=O GRANDE AMOR
TTITLE2=ALMA MIA
TTITLE3=CHOVENDO NA ROSEIRA
TTITLE4=BESAME MUCHO
TTITLE5=EL DIA QUE ME QUIERAS
TTITLE6=HISTORIA DE UN AMOR
TTITLE7=TU REGRESO,A
TTITLE8=TRAS DA PORTA
TTITLE9=AKFONSINA Y EL MAR
EXTD=YEAR: 2005
EXTT0=
EXTT1=
EXTT2=
EXTT3=
EXTT4=
EXTT5=
EXTT6=
EXTT7=
EXTT8=
EXTT9=
PLAYORDER=
